# Blender v2.68 (sub 0) OBJ File: ''
# www.blender.org
o Cube_Cube.001
v -0.130472 -0.147759 0.135843
v -0.130472 -0.147759 -0.116448
v 0.121820 -0.147759 -0.116448
v 0.121820 -0.147759 0.135843
v -0.130472 0.104532 0.135843
v -0.130472 0.104532 -0.116448
v 0.121820 0.104532 -0.116448
v 0.121820 0.104532 0.135843
v 0.511069 0.103785 0.135843
v 0.511069 0.103785 -0.116448
v 0.511069 -0.148507 -0.116448
v 0.511069 -0.148507 0.135843
v -0.130472 0.103785 0.525093
v 0.121820 0.103785 0.525093
v 0.121820 -0.148507 0.525093
v -0.130472 -0.148507 0.525093
v -0.519722 0.103785 -0.116448
v -0.519722 0.103785 0.135843
v -0.519722 -0.148507 0.135843
v -0.519722 -0.148507 -0.116448
v 0.121820 0.103785 -0.505698
v -0.130472 0.103785 -0.505698
v -0.130472 -0.148507 -0.505698
v 0.121820 -0.148507 -0.505698
v -0.130472 0.493035 0.135843
v -0.130472 0.493035 -0.116448
v 0.121820 0.493035 -0.116448
v 0.121820 0.493035 0.135843
v 0.121820 -0.537756 0.135843
v 0.121820 -0.537756 -0.116448
v -0.130472 -0.537756 -0.116448
v -0.130472 -0.537756 0.135843
vn -1.000000 0.000000 0.000000
vn -0.001165 -0.999999 0.000000
vn 0.000000 0.000000 1.000000
vn 0.001165 0.999999 0.000000
vn 0.000000 0.000000 -1.000000
vn 0.000000 -0.999999 -0.001165
vn 0.000000 0.999999 0.001165
vn 1.000000 -0.000000 0.000000
vn 0.001165 -0.999999 0.000000
vn -0.001165 0.999999 0.000000
vn 0.000000 -0.999999 0.001165
vn 0.000000 0.999999 -0.001165
vn -0.000000 -1.000000 0.000000
vn -0.000000 1.000000 0.000000
s off
f 9//1 10//1 11//1 12//1
f 6//2 10//2 9//2 5//2
f 2//3 11//3 10//3 6//3
f 1//4 12//4 11//4 2//4
f 5//5 9//5 12//5 1//5
f 13//5 14//5 15//5 16//5
f 7//6 14//6 13//6 6//6
f 3//1 15//1 14//1 7//1
f 2//7 16//7 15//7 3//7
f 6//8 13//8 16//8 2//8
f 17//8 18//8 19//8 20//8
f 8//9 18//9 17//9 7//9
f 4//5 19//5 18//5 8//5
f 3//10 20//10 19//10 4//10
f 7//3 17//3 20//3 3//3
f 21//3 22//3 23//3 24//3
f 5//11 22//11 21//11 8//11
f 1//8 23//8 22//8 5//8
f 4//12 24//12 23//12 1//12
f 8//1 21//1 24//1 4//1
f 25//13 26//13 27//13 28//13
f 2//8 26//8 25//8 1//8
f 3//3 27//3 26//3 2//3
f 4//1 28//1 27//1 3//1
f 1//5 25//5 28//5 4//5
f 29//14 30//14 31//14 32//14
f 7//1 30//1 29//1 8//1
f 6//3 31//3 30//3 7//3
f 5//8 32//8 31//8 6//8
f 8//5 29//5 32//5 5//5
